HIERARCHY
ROOT RootJoint
{
    OFFSET   0.000000   0.000000   0.000000
    CHANNELS 6 Xposition Yposition Zposition Xrotation Yrotation Zrotation
    JOINT pelvis_lowerback
    {
        OFFSET   0.000000   0.093605   0.000000
        CHANNELS 3 Xrotation Yrotation Zrotation
        JOINT lowerback_torso
        {
            OFFSET   0.000000   0.100000   0.000000
            CHANNELS 3 Xrotation Yrotation Zrotation
            JOINT torso_head
            {
                OFFSET   0.000000   0.282350   0.000000
                CHANNELS 3 Xrotation Yrotation Zrotation
                End Site
                {
                    OFFSET   0.000000   0.192650   0.000000
                }
            }
            JOINT rTorso_Clavicle
            {
                OFFSET  -0.001000   0.157500   0.000000
                CHANNELS 3 Xrotation Yrotation Zrotation
                JOINT rShoulder
                {
                    OFFSET  -0.117647   0.000000   0.000000
                    CHANNELS 3 Xrotation Yrotation Zrotation
                    JOINT rElbow
                    {
                        OFFSET  -0.245000   0.000000   0.000000
                        CHANNELS 3 Xrotation Yrotation Zrotation
                        JOINT rWrist
                        {
                            OFFSET  -0.240000   0.000000   0.000000
                            CHANNELS 3 Xrotation Yrotation Zrotation
                            End Site
                            {
                                OFFSET  -0.116353  -0.002500   0.000000
                            }
                        }
                    }
                }
            }
            JOINT lTorso_Clavicle
            {
                OFFSET   0.001000   0.157500   0.000000
                CHANNELS 3 Xrotation Yrotation Zrotation
                JOINT lShoulder
                {
                    OFFSET   0.117647   0.000000   0.000000
                    CHANNELS 3 Xrotation Yrotation Zrotation
                    JOINT lElbow
                    {
                        OFFSET   0.245000   0.000000   0.000000
                        CHANNELS 3 Xrotation Yrotation Zrotation
                        JOINT lWrist
                        {
                            OFFSET   0.240000   0.000000   0.000000
                            CHANNELS 3 Xrotation Yrotation Zrotation
                            End Site
                            {
                                OFFSET   0.116353  -0.002500   0.000000
                            }
                        }
                    }
                }
            }
        }
    }
    JOINT rHip
    {
        OFFSET  -0.100000  -0.051395   0.000000
        CHANNELS 3 Xrotation Yrotation Zrotation
        JOINT rKnee
        {
            OFFSET   0.000000  -0.410000   0.000000
            CHANNELS 3 Xrotation Yrotation Zrotation
            JOINT rAnkle
            {
                OFFSET   0.000000  -0.390000   0.000000
                CHANNELS 3 Xrotation Yrotation Zrotation
                JOINT rToeJoint
                {
                    OFFSET   0.000000  -0.050000   0.130000
                    CHANNELS 3 Xrotation Yrotation Zrotation
                    End Site
                    {
                        OFFSET  -0.010000   0.002000   0.060000
                    }
                }
            }
        }
    }
    JOINT lHip
    {
        OFFSET   0.100000  -0.051395   0.000000
        CHANNELS 3 Xrotation Yrotation Zrotation
        JOINT lKnee
        {
            OFFSET   0.000000  -0.410000   0.000000
            CHANNELS 3 Xrotation Yrotation Zrotation
            JOINT lAnkle
            {
                OFFSET   0.000000  -0.390000   0.000000
                CHANNELS 3 Xrotation Yrotation Zrotation
                JOINT lToeJoint
                {
                    OFFSET   0.000000  -0.050000   0.130000
                    CHANNELS 3 Xrotation Yrotation Zrotation
                    End Site
                    {
                        OFFSET   0.010000   0.002000   0.060000
                    }
                }
            }
        }
    }
}
MOTION
Frames: 14
Frame Time:   0.008333
 -2.376719   0.925631   3.975860   0.000000   0.000000   0.000000   0.000000   0.000000   0.000000   0.000000   0.000000   0.000000   0.000000   0.000000   0.000000   0.000000   0.000000   0.000000   0.000000   0.000000   0.000000   0.000000   0.000000   0.000000   0.000000   0.000000   0.000000   0.000000   0.000000   0.000000   0.000000   0.000000   0.000000   0.000000   0.000000   0.000000   0.000000   0.000000   0.000000   0.000000   0.000000   0.000000   0.000000   0.000000   0.000000   0.000000   0.000000   0.000000   0.000000   0.000000   0.000000   0.000000   0.000000   0.000000   0.000000   0.000000   0.000000   0.000000   0.000000   0.000000   0.000000   0.000000   0.000000
 -2.376420   0.925864   3.974854  -0.190001   0.737598  -0.064478   0.201128   0.022501   0.072994   0.381701  -0.171676   0.180366  -0.019135   0.845277  -0.371644   0.750959  -1.143931  -0.201553   1.717397  -0.108641   2.081193   0.059982   3.218177  -0.081843   0.215773  -1.145862  -2.416173   0.067796  -0.392915  -0.128098   1.389986  -0.064848  -2.159258   0.049673  -2.642675   0.043811   0.137130   1.354696   2.522501  -0.210672   0.391603  -0.182649   1.316229   0.003001   0.012930  -0.871301  -0.372035  -0.040336   0.330027   0.000813   0.002182  -0.511519  -0.707735   0.244682   1.454009  -0.002362   0.000430  -1.322941  -0.425196  -0.220418   0.659891   0.000167  -0.002287
 -2.376028   0.926293   3.973381  -0.487422   1.787217  -0.132599   0.500166  -0.026903   0.184317   0.902352  -0.466706   0.381357   0.017793   1.685161  -0.725061   1.483482  -2.187312   0.164406   3.413524  -0.068768   4.606693   0.142114   6.324200  -0.147925   0.519428  -1.432519  -4.367962   0.133705  -1.046875  -0.833063   2.740207  -0.456839  -4.787784   0.116279  -5.256878   0.081522   0.329127   1.789687   4.471492  -0.348271   0.793983  -0.542821   2.733250   0.008698   0.027991  -1.677257  -0.716922  -0.084799   0.623976   0.001925   0.004562  -1.024850  -1.392277   0.639048   2.937023  -0.006204   0.005383  -2.558798  -0.822890  -0.440331   1.229916  -0.000578  -0.001977
 -2.375605   0.926600   3.971635  -0.792858   2.957685  -0.194155   0.841063  -0.122027   0.313362   1.450023  -0.811241   0.593960   0.065447   2.474082  -1.050041   2.179919  -3.050602   0.902186   5.074784   0.134036   7.423317   0.226068   9.253650  -0.197453   0.829084  -1.408481  -5.699506   0.172089  -1.851344  -1.881531   4.034204  -1.071493  -7.698622   0.183596  -7.756025   0.110723   0.539893   1.768547   5.772921  -0.471316   1.177912  -1.048155   4.087598   0.015489   0.040052  -2.427292  -1.038186  -0.131673   0.896261   0.003145   0.006517  -1.543860  -2.025149   1.152266   4.308512  -0.010274   0.011400  -3.714269  -1.185227  -0.653641   1.747991  -0.001761  -0.000717
 -2.375196   0.926549   3.969775  -1.078301   4.150320  -0.246640   1.202411  -0.234291   0.450904   1.991203  -1.164092   0.808386   0.113538   3.211435  -1.349799   2.839192  -3.749839   1.872008   6.699552   0.498814  10.435150   0.302052  12.012034  -0.233653   1.139264  -1.211392  -6.537179   0.176870  -2.733941  -3.144676   5.242009  -1.840695 -10.731743   0.243152 -10.125944   0.131724   0.764724   1.493674   6.558321  -0.592696   1.540022  -1.670175   5.352473   0.022218   0.048076  -3.127782  -1.338438  -0.179931   1.141720   0.004268   0.007797  -2.059942  -2.615708   1.760932   5.564112  -0.014035   0.016710  -4.795961  -1.516080  -0.858636   2.214985  -0.003067   0.000669
 -2.374852   0.925952   3.967932  -1.335264   5.317239  -0.288483   1.570621  -0.347831   0.587169   2.513913  -1.505486   1.010598   0.160801   3.899955  -1.625661   3.458067  -4.313698   2.981187   8.283279   1.013015  13.577113   0.365556  14.606002  -0.259066   1.448479  -0.898180  -7.015841   0.148189  -3.645432  -4.556843   6.320329  -2.691809 -13.715139   0.290281 -12.363605   0.144815   0.996346   1.065873   6.927525  -0.711144   1.880683  -2.383122   6.528280   0.028180   0.052441  -3.782597  -1.619378  -0.228813   1.361697   0.005186   0.008455  -2.562264  -3.171746   2.445886   6.717258  -0.017294   0.020793  -5.808382  -1.819044  -1.054564   2.636338  -0.004318   0.001862
 -2.374600   0.924667   3.966205  -1.561394   6.439025  -0.320823   1.935067  -0.454572   0.717002   3.011497  -1.825819   1.198179   0.208369   4.542464  -1.882578   4.034112  -4.773765   4.162003   9.821174   1.657766  16.801844   0.415148  17.041268  -0.275606   1.753404  -0.511873  -7.245166   0.088056  -4.547012  -6.038820   7.277918  -3.584362 -16.599493   0.324006 -14.467769   0.151350   1.225650   0.559245   7.016237  -0.822510   2.200997  -3.163790   7.621163   0.033038   0.053937  -4.394785  -1.882257  -0.277698   1.559289   0.005870   0.008636  -3.042437  -3.698555   3.190957   7.781285  -0.019974   0.023662  -6.755536  -2.097057  -1.241101   3.017681  -0.005414   0.002785
 -2.374035   0.922066   3.964363  -1.589144   7.153776  -0.228256   2.080941  -0.324605   0.830937   3.495568  -2.049863   1.243816   0.202664   5.022548  -2.060268   4.598219  -5.018152   4.764295  11.433221   2.366454  19.875654   0.464810  19.928758  -0.306029   1.911613  -0.338234  -6.398913   0.148075  -5.292459  -6.941734   8.234502  -4.506386 -19.446949   0.348533 -16.710623   0.161044   1.382213  -0.088825   6.409587  -1.244758   2.311989  -4.127736   9.057894   0.040044   0.050605  -5.223980  -2.282719  -0.279559   1.713837   0.005988   0.007323  -3.705785  -4.079222   3.708376   8.598647  -0.020183   0.022514  -7.091895  -2.581663  -1.249016   3.179293  -0.005296   0.002148
 -2.373396   0.918342   3.962652  -1.600812   7.716851  -0.115026   2.217622  -0.132130   0.953905   3.934193  -2.178945   1.266115   0.196704   5.463216  -2.219286   5.098595  -5.171855   5.138839  12.882558   3.146337  22.598535   0.487604  22.663069  -0.323248   2.098397   0.055127  -5.609236   0.189544  -5.972116  -7.656819   9.088562  -5.396446 -22.014406   0.355040 -18.813605   0.163320   1.544577  -0.813371   5.825577  -1.590297   2.399366  -5.094090  10.438147   0.044574   0.045147  -5.996199  -2.663563  -0.287478   1.858873   0.005973   0.006034  -4.395122  -4.448876   4.154921   9.323696  -0.019696   0.020348  -7.401670  -3.038601  -1.260184   3.359859  -0.005257   0.001462
 -2.372907   0.916921   3.960951  -1.678410   8.546570   0.324758   2.435737  -0.032849   0.820427   4.385877  -2.351423   1.196710   0.190354   5.868934  -2.374067   5.547990  -5.276439   5.617532  14.183037   3.964736  25.147835   0.497997  25.216158  -0.332984   2.279520   0.443574  -5.008167   0.192126  -6.654230  -8.407449   9.834640  -6.282936 -24.380787   0.354095 -20.771317   0.159905   1.699132  -1.486258   5.433427  -1.813136   2.642475  -5.817508  11.409358   0.040385   0.043475  -7.108412  -2.740073  -0.046271   1.848565   0.004772   0.004740  -5.321838  -4.538420   3.631477  10.618722  -0.014382   0.025319  -7.195799  -3.302258  -1.563915   3.563654  -0.003586   0.002072
 -2.372766   0.915857   3.959566  -1.745282   9.236227   0.634270   2.613186   0.167809   0.820301   4.810058  -2.433654   1.144299   0.196610   6.250644  -2.521131   5.959368  -5.353995   5.958962  15.359516   4.792278  27.470234   0.494430  27.613113  -0.334905   2.456926   0.886312  -4.420627   0.201238  -7.254663  -9.063726  10.510241  -7.122353 -26.591917   0.344536 -22.601865   0.152091   1.840631  -2.141042   5.001201  -2.126299   2.777018  -6.202298  12.426937   0.035141   0.040632  -7.984573  -2.981856   0.033288   1.682305   0.003719   0.003059  -6.031001  -4.760050   3.235119  11.643648  -0.010509   0.024760  -7.253812  -3.674257  -1.638712   3.759969  -0.002692   0.001861
 -2.372808   0.914884   3.958407  -1.794490   9.869965   0.900872   2.761990   0.404652   0.858005   5.194919  -2.457434   1.105055   0.202424   6.607565  -2.652571   6.333457  -5.419066   6.199212  16.423707   5.602237  29.575149   0.480427  29.854355  -0.330542   2.627040   1.336530  -3.924057   0.217247  -7.776032  -9.633973  11.124964  -7.900167 -28.632337   0.328282 -24.303110   0.141131   1.967058  -2.736289   4.595311  -2.459910   2.846284  -6.478818  13.416801   0.030120   0.037342  -8.778541  -3.270052   0.068314   1.557935   0.002942   0.002073  -6.645410  -4.992740   2.891691  12.513245  -0.007685   0.023006  -7.366965  -4.034902  -1.690130   3.920418  -0.002063   0.001560
 -2.372984   0.913938   3.957418  -1.832202  10.503045   1.143912   2.891339   0.653312   0.915831   5.547169  -2.447517   1.075008   0.206857   6.940582  -2.771180   6.677083  -5.482898   6.364048  17.390139   6.381317  31.489315   0.459428  31.945626  -0.321791   2.787519   1.765034  -3.523551   0.239186  -8.230185 -10.127023  11.685776  -8.618652 -30.511167   0.307611 -25.882400   0.128229   2.079329  -3.260783   4.240102  -2.776835   2.889895  -6.719226  14.355332   0.025835   0.034352  -9.522169  -3.562256   0.082827   1.485286   0.002335   0.001456  -7.211606  -5.216122   2.581453  13.289966  -0.005580   0.021250  -7.495505  -4.374798  -1.734017   4.062574  -0.001592   0.001338
 -2.373528   0.913088   3.956471  -1.870146  11.040478   1.407447   3.073668   0.946223   0.913508   5.876339  -2.454989   1.019216   0.122835   7.063343  -2.794514   6.862586  -5.403884   6.259835  18.298956   7.085079  32.954642   0.424740  33.912388  -0.309041   2.852867   2.245375  -2.535583   0.366698  -8.483332 -10.226879  12.108452  -9.214886 -32.024753   0.281474 -27.471650   0.115014   2.143472  -3.824224   3.385846  -3.079888   2.646983  -6.981678  15.397611   0.021764   0.029148 -10.396158  -4.002579   0.005710   1.557536   0.001920   0.001031  -7.594890  -5.444906   2.265428  13.707503  -0.004223   0.018097  -7.336105  -4.851323  -1.660277   4.015246  -0.001242   0.001140
